<svg width="17" height="17" viewBox="0 0 17 17" fill="none" xmlns="http://www.w3.org/2000/svg">
<g clip-path="url(#clip0_61385:198)">
<path d="M8.31269 0.967804C3.72247 0.967804 0 4.4255 0 8.69088C0 12.1024 2.38188 14.9966 5.68659 16.0188C6.10227 16.0899 6.254 15.8515 6.254 15.6466C6.254 15.463 6.24673 14.9774 6.24257 14.3332C3.93031 14.7995 3.44188 13.2976 3.44188 13.2976C3.06465 12.4053 2.51906 12.1678 2.51906 12.1678C1.76355 11.689 2.57518 11.6986 2.57518 11.6986C3.40967 11.7534 3.84822 12.4947 3.84822 12.4947C4.59022 13.6745 5.79467 13.3341 6.26855 13.1361C6.34337 12.637 6.55849 12.2966 6.79647 12.1034C4.95082 11.9082 3.00957 11.2457 3.00957 8.28703C3.00957 7.44376 3.3338 6.75434 3.86588 6.21396C3.77963 6.01877 3.49488 5.23319 3.94694 4.17069C3.94694 4.17069 4.64529 3.963 6.23322 4.96203C6.89624 4.79088 7.60706 4.7053 8.31477 4.70242C9.02039 4.70627 9.73225 4.79088 10.3963 4.963C11.9832 3.96396 12.6805 4.17165 12.6805 4.17165C13.1336 5.23511 12.8489 6.01973 12.7636 6.21492C13.2968 6.7553 13.6179 7.44473 13.6179 8.288C13.6179 11.2543 11.6745 11.9072 9.82267 12.0986C10.1209 12.337 10.387 12.8082 10.387 13.5284C10.387 14.5611 10.3766 15.3938 10.3766 15.6466C10.3766 15.8534 10.5262 16.0938 10.9481 16.0178C14.2476 14.9947 16.6275 12.1015 16.6275 8.69088C16.6275 4.4255 12.905 0.967804 8.31269 0.967804Z" fill="#C4C4CC"/>
</g>
<defs>
<clipPath id="clip0_61385:198">
<rect width="16.6275" height="15.3846" fill="white" transform="translate(0 0.807678)"/>
</clipPath>
</defs>
</svg>
